<?xml version="1.0" encoding="UTF-8" standalone="no"?>
<!-- Creator: CorelDRAW X7 -->

<svg
   xmlns:dc="http://purl.org/dc/elements/1.1/"
   xmlns:cc="http://creativecommons.org/ns#"
   xmlns:rdf="http://www.w3.org/1999/02/22-rdf-syntax-ns#"
   xmlns:svg="http://www.w3.org/2000/svg"
   xmlns="http://www.w3.org/2000/svg"
   xmlns:sodipodi="http://sodipodi.sourceforge.net/DTD/sodipodi-0.dtd"
   xmlns:inkscape="http://www.inkscape.org/namespaces/inkscape"
   xml:space="preserve"
   width="327.46417mm"
   height="61.062412mm"
   version="1.1"
   style="clip-rule:evenodd;fill-rule:evenodd;image-rendering:optimizeQuality;shape-rendering:geometricPrecision;text-rendering:geometricPrecision"
   viewBox="0 0 32746.417 6106.2412"
   id="svg406"
   sodipodi:docname="logo6.svg"
   inkscape:version="0.92.3 (2405546, 2018-03-11)"><metadata
   id="metadata410"><rdf:RDF><cc:Work
       rdf:about=""><dc:format>image/svg+xml</dc:format><dc:type
         rdf:resource="http://purl.org/dc/dcmitype/StillImage" /><dc:title></dc:title></cc:Work></rdf:RDF></metadata><sodipodi:namedview
   pagecolor="#ffffff"
   bordercolor="#666666"
   borderopacity="1"
   objecttolerance="10"
   gridtolerance="10"
   guidetolerance="10"
   inkscape:pageopacity="0"
   inkscape:pageshadow="2"
   inkscape:window-width="1920"
   inkscape:window-height="1017"
   id="namedview408"
   showgrid="false"
   fit-margin-top="0"
   fit-margin-left="0"
   fit-margin-right="0"
   fit-margin-bottom="0"
   inkscape:pagecheckerboard="true"
   inkscape:zoom="0.75544332"
   inkscape:cx="671.70172"
   inkscape:cy="14.29232"
   inkscape:window-x="-8"
   inkscape:window-y="-8"
   inkscape:window-maximized="1"
   inkscape:current-layer="svg406" />
 <defs
   id="defs380">
  <style
   type="text/css"
   id="style378">
   <![CDATA[
    .fil5 {fill:#0070C0}
    .fil3 {fill:#00B050}
    .fil0 {fill:#00B0F0}
    .fil4 {fill:#7030A0}
    .fil7 {fill:#92D050}
    .fil2 {fill:red}
    .fil1 {fill:#FFC000}
    .fil6 {fill:yellow}
   ]]>
  </style>
 </defs>
 <g
   id="Layer_x0020_1"
   transform="translate(6186.3768,-9121.9098)">
  <metadata
   id="CorelCorpID_0Corel-Layer" />
  <path
   class="fil0"
   d="m -5619,11920 460,1193 460,-177 c 124,-48 225,-104 304,-169 79,-65 138,-136 177,-213 40,-77 59,-157 59,-241 1,-84 -16,-169 -49,-255 -53,-138 -130,-243 -229,-315 -98,-72 -229,-101 -391,-87 -51,5 -106,16 -165,33 -60,16 -136,43 -229,78 z m -445,-274 752,-290 c 90,-35 165,-61 226,-80 61,-18 116,-33 166,-46 146,-29 281,-38 406,-28 124,11 237,42 339,93 101,51 189,120 264,208 74,87 135,192 182,314 46,119 71,231 75,337 4,107 -10,207 -42,303 -32,95 -80,185 -144,270 -63,86 -140,167 -230,243 68,3 133,15 196,36 63,21 125,51 187,90 62,39 125,87 189,144 64,57 131,123 202,198 l 619,658 c 50,56 85,96 102,119 18,24 29,43 35,58 5,14 8,28 6,41 -1,13 -9,27 -25,41 -15,14 -39,30 -70,46 -31,16 -75,35 -129,56 -48,18 -87,32 -119,39 -31,8 -58,12 -79,11 -21,-2 -40,-7 -56,-18 -15,-11 -31,-26 -47,-45 l -647,-709 c -75,-80 -148,-152 -220,-215 -72,-64 -147,-114 -225,-149 -79,-36 -163,-55 -252,-57 -89,-3 -187,17 -295,58 l -314,122 581,1507 c 6,15 6,29 2,44 -4,14 -13,27 -28,40 -15,13 -36,28 -65,44 -28,16 -65,33 -111,51 -45,17 -84,30 -116,37 -32,7 -58,11 -79,11 -20,1 -37,-3 -48,-11 -12,-8 -20,-20 -26,-34 l -1264,-3278 c -27,-71 -27,-128 -1,-171 27,-43 61,-72 103,-88 z"
   id="path383"
   inkscape:connector-curvature="0"
   style="fill:#00b0f0" />
  <path
   class="fil1"
   d="m -1179,12785 c -130,28 -241,63 -332,105 -91,43 -163,92 -217,148 -54,57 -89,118 -106,185 -17,67 -17,139 0,217 28,134 94,232 196,293 102,61 229,76 382,43 124,-27 233,-83 325,-168 93,-86 184,-206 273,-361 l -117,-548 z m -471,-1504 c 185,-39 348,-52 487,-38 139,15 257,54 355,118 97,64 177,153 239,265 62,113 110,250 145,410 l 371,1741 c 5,23 1,42 -12,57 -13,15 -32,28 -58,39 -25,12 -64,23 -115,34 -50,10 -91,16 -121,17 -31,0 -55,-4 -70,-13 -16,-8 -27,-24 -31,-47 l -56,-258 c -87,145 -192,265 -317,362 -124,96 -264,161 -419,194 -135,29 -262,37 -379,25 -118,-12 -223,-43 -314,-93 -92,-51 -170,-120 -234,-208 -63,-89 -109,-195 -135,-319 -31,-146 -28,-278 8,-398 37,-120 103,-227 198,-321 96,-94 221,-176 374,-246 153,-70 330,-126 531,-169 l 355,-76 -43,-200 c -21,-100 -50,-185 -87,-257 -38,-72 -85,-129 -143,-169 -58,-41 -126,-66 -206,-76 -81,-10 -175,-4 -284,20 -117,25 -218,61 -305,108 -87,48 -162,96 -225,144 -62,48 -114,91 -155,129 -41,38 -73,59 -96,64 -15,3 -29,2 -42,-3 -13,-5 -26,-14 -38,-28 -12,-13 -22,-32 -31,-55 -9,-23 -16,-49 -22,-77 -11,-48 -15,-87 -15,-116 1,-29 12,-59 32,-89 21,-30 59,-69 115,-116 56,-47 122,-93 198,-138 77,-46 162,-88 255,-127 94,-39 191,-69 290,-90 z"
   id="path385"
   inkscape:connector-curvature="0"
   style="fill:#ffc000" />
  <path
   class="fil2"
   d="m 592,10915 c 49,-8 88,-12 120,-13 31,-1 57,1 75,6 19,6 33,13 42,24 10,10 16,22 18,36 l 400,2608 c 2,16 0,30 -6,41 -6,12 -17,23 -33,34 -16,10 -40,20 -70,28 -30,9 -70,17 -118,24 -46,7 -85,11 -117,12 -31,1 -57,-1 -76,-6 -20,-5 -34,-12 -42,-22 -9,-9 -14,-22 -16,-37 L 368,11041 c -2,-14 0,-27 5,-39 5,-13 16,-24 33,-35 17,-11 41,-20 71,-29 31,-8 69,-16 115,-23 z M 430,9839 c 112,-17 192,-9 240,24 47,33 80,105 96,215 18,112 8,192 -28,239 -36,47 -112,79 -226,97 -112,17 -192,9 -239,-24 -48,-34 -80,-105 -97,-216 -17,-112 -8,-191 29,-238 36,-47 111,-80 225,-97 z"
   id="path387"
   inkscape:connector-curvature="0"
   style="fill:#ff0000" />
  <path
   class="fil3"
   d="m 3114,10552 c 175,-19 325,-5 451,42 126,46 231,115 315,207 85,91 150,201 197,331 46,130 79,288 99,475 l 171,1600 c 2,16 -1,30 -8,41 -6,12 -18,22 -35,32 -16,9 -40,18 -71,25 -30,7 -69,13 -116,18 -48,6 -88,8 -120,7 -31,0 -56,-3 -75,-9 -18,-6 -31,-14 -40,-24 -9,-10 -15,-23 -16,-38 l -164,-1537 c -16,-150 -41,-269 -74,-358 -33,-89 -76,-164 -127,-225 -52,-61 -115,-106 -190,-133 -75,-28 -159,-36 -252,-26 -121,13 -237,68 -348,167 -111,98 -224,237 -339,416 l 196,1834 c 2,16 -1,30 -7,41 -7,12 -19,22 -35,32 -17,9 -41,18 -71,25 -31,7 -71,14 -119,19 -47,5 -86,7 -118,6 -31,0 -56,-3 -76,-9 -19,-6 -33,-14 -41,-24 -8,-10 -12,-23 -14,-38 l -280,-2625 c -2,-15 -1,-29 4,-40 5,-11 15,-22 32,-33 17,-10 38,-19 65,-24 27,-6 63,-12 108,-16 42,-5 78,-7 107,-7 28,0 51,3 67,10 17,7 29,16 37,26 8,10 12,22 14,38 l 37,347 c 130,-181 265,-318 403,-410 139,-93 283,-147 433,-163 z"
   id="path389"
   inkscape:connector-curvature="0"
   style="fill:#00b050" />
  <path
   class="fil4"
   d="m 6314,10722 c -63,3 -124,15 -184,36 -60,21 -120,54 -181,99 -61,44 -123,100 -187,169 -64,68 -132,153 -203,255 l 58,1051 c 143,154 277,271 404,349 126,78 255,114 387,106 122,-7 224,-42 307,-105 83,-63 149,-145 198,-244 49,-100 82,-211 100,-332 18,-121 23,-244 16,-367 -7,-134 -25,-264 -52,-390 -28,-126 -70,-236 -127,-331 -56,-95 -128,-170 -216,-224 -88,-55 -194,-79 -320,-72 z M 5196,9124 c 48,-2 88,-3 120,-1 31,3 56,7 74,14 18,7 31,16 40,27 8,11 13,25 14,40 l 87,1579 c 74,-85 146,-156 216,-215 70,-59 139,-107 208,-145 68,-38 137,-67 207,-86 69,-20 143,-32 221,-36 191,-11 357,18 497,87 139,68 255,164 347,288 92,123 163,269 211,439 49,169 78,350 89,541 13,228 -1,435 -41,621 -39,185 -104,345 -193,479 -90,134 -203,239 -340,315 -136,76 -296,119 -477,130 -84,4 -162,0 -234,-12 -72,-13 -144,-36 -214,-69 -70,-34 -141,-77 -213,-130 -71,-52 -147,-117 -228,-193 l 18,323 c 1,15 -2,29 -9,41 -8,12 -20,22 -37,30 -17,8 -39,15 -65,20 -26,5 -60,9 -101,11 -39,3 -72,2 -100,0 -27,-2 -50,-7 -68,-12 -18,-6 -30,-15 -36,-26 -7,-12 -11,-25 -12,-41 L 4961,9231 c -1,-15 1,-29 8,-41 6,-12 18,-23 36,-32 18,-9 43,-16 74,-21 31,-6 70,-10 117,-13 z"
   id="path391"
   inkscape:connector-curvature="0"
   style="fill:#7030a0" />
  <path
   class="fil5"
   d="m 9400,10612 c -144,1 -268,28 -371,80 -103,52 -187,125 -253,219 -66,93 -115,204 -146,331 -31,128 -45,267 -44,417 2,145 17,281 45,407 28,127 74,237 137,332 63,94 147,168 252,223 106,54 236,80 392,79 142,-2 265,-29 369,-81 104,-52 189,-124 255,-217 66,-92 114,-203 144,-330 30,-127 44,-267 43,-420 -2,-143 -17,-277 -45,-404 -28,-127 -73,-238 -135,-333 -63,-95 -146,-170 -252,-224 -105,-55 -235,-81 -391,-79 z m 14,-405 c 217,-3 407,27 569,90 162,63 297,155 406,277 109,122 192,270 247,446 56,175 85,373 88,594 2,215 -24,413 -79,595 -54,181 -137,338 -248,471 -111,132 -250,236 -419,311 -168,75 -363,114 -586,117 -217,2 -407,-28 -569,-91 -162,-62 -297,-155 -406,-277 -109,-122 -191,-270 -246,-446 -55,-175 -83,-374 -86,-597 -2,-215 23,-413 77,-595 54,-181 136,-338 247,-470 111,-133 250,-236 417,-310 167,-74 363,-113 588,-115 z"
   id="path393"
   inkscape:connector-curvature="0"
   style="fill:#0070c0" />
  <path
   class="fil6"
   d="m 11383,10231 c 55,2 99,5 132,9 33,4 58,10 76,18 17,7 29,18 37,31 7,13 13,28 18,46 l 553,2198 5,27 7,-26 666,-2152 c 5,-18 12,-33 21,-45 9,-12 23,-22 41,-28 17,-6 42,-10 72,-12 30,-1 70,-1 119,0 47,2 85,5 115,9 31,4 54,10 72,18 17,7 29,17 37,29 7,12 12,26 16,42 l 547,2204 4,27 4,-27 710,-2150 c 5,-18 12,-33 21,-45 9,-12 24,-22 42,-28 19,-6 45,-10 77,-11 32,-2 74,-2 125,0 47,2 84,4 113,7 28,3 50,9 66,17 17,9 28,18 35,28 6,10 9,24 8,42 0,13 -3,30 -8,49 -4,20 -12,44 -23,73 l -872,2476 c -7,21 -17,38 -30,51 -13,13 -31,24 -54,30 -23,7 -54,12 -93,13 -39,2 -88,1 -146,-1 -61,-2 -112,-6 -153,-12 -40,-5 -73,-12 -97,-21 -24,-9 -42,-20 -53,-34 -11,-15 -19,-31 -25,-51 l -480,-1935 -5,-27 -7,27 -586,1894 c -7,21 -17,38 -30,51 -13,14 -33,24 -58,30 -26,7 -59,11 -99,13 -40,1 -90,1 -148,-1 -61,-3 -110,-7 -148,-12 -38,-5 -69,-12 -93,-21 -24,-9 -42,-20 -53,-34 -11,-15 -19,-32 -24,-51 l -676,-2535 c -8,-30 -14,-55 -17,-74 -4,-20 -5,-37 -4,-50 0,-18 5,-32 13,-42 8,-11 22,-19 41,-25 18,-6 43,-10 75,-11 31,0 69,0 114,2 z"
   id="path395"
   inkscape:connector-curvature="0"
   style="fill:#ffff00" />
  <path
   class="fil0"
   d="m 17654,9601 c 49,6 89,13 120,22 32,8 57,17 75,26 19,9 32,20 38,33 6,12 9,27 7,42 l -202,1674 1535,-1513 c 14,-16 29,-29 46,-39 17,-10 37,-17 60,-21 23,-4 51,-6 84,-6 32,0 74,3 124,9 51,6 91,13 122,22 30,9 54,18 72,28 17,10 28,21 34,34 5,12 7,25 6,39 -4,25 -13,49 -29,73 -15,24 -43,56 -83,96 l -1429,1343 1129,1950 c 27,55 43,91 48,111 4,19 6,34 4,46 -1,16 -7,29 -15,41 -8,12 -22,20 -43,26 -20,5 -47,8 -81,9 -33,1 -76,-1 -129,-8 -68,-8 -123,-18 -165,-28 -42,-11 -72,-26 -92,-44 -19,-18 -35,-38 -46,-59 l -1159,-2051 -227,1884 c -2,14 -7,27 -16,38 -10,12 -24,20 -45,24 -20,5 -46,8 -79,9 -32,1 -73,-2 -121,-8 -47,-5 -87,-13 -119,-21 -32,-9 -58,-18 -76,-27 -19,-9 -32,-21 -38,-34 -6,-14 -8,-27 -7,-41 l 436,-3616 c 2,-16 7,-29 16,-40 10,-10 24,-18 44,-22 21,-5 48,-7 81,-8 34,-1 74,1 120,7 z"
   id="path397"
   inkscape:connector-curvature="0"
   style="fill:#00b0f0" />
  <path
   class="fil7"
   d="m 20652,11034 c 48,8 87,17 117,26 30,9 53,19 70,30 15,10 26,22 32,35 6,13 8,26 5,40 l -445,2601 c -3,16 -9,28 -18,37 -10,9 -24,16 -42,21 -19,5 -44,7 -76,5 -31,-1 -71,-6 -119,-14 -46,-8 -85,-17 -115,-26 -30,-9 -54,-19 -71,-30 -17,-11 -27,-22 -32,-34 -5,-12 -6,-25 -4,-41 l 445,-2601 c 3,-14 8,-26 17,-36 9,-10 23,-18 42,-22 20,-5 46,-7 77,-5 32,1 71,6 117,14 z m 186,-1072 c 112,19 185,52 220,99 34,46 42,124 23,234 -19,112 -53,184 -102,218 -49,33 -131,40 -245,20 -111,-19 -185,-52 -219,-98 -35,-47 -43,-125 -24,-235 19,-112 53,-184 103,-217 49,-34 130,-41 244,-21 z"
   id="path399"
   inkscape:connector-curvature="0"
   style="fill:#92d050" />
  <path
   class="fil4"
   d="m 22800,11854 c -119,-29 -228,-26 -325,11 -98,36 -184,94 -259,174 -75,81 -139,177 -192,289 -52,111 -94,228 -124,350 -31,129 -52,258 -63,386 -10,128 -3,246 23,354 26,108 73,201 140,279 68,78 163,132 286,163 63,15 126,21 187,19 63,-3 129,-17 199,-42 71,-25 147,-61 230,-108 82,-48 171,-109 268,-184 l 252,-1025 c -89,-189 -182,-339 -280,-451 -99,-111 -212,-183 -342,-215 z m 1367,-1358 c 48,11 86,23 115,36 30,12 52,23 67,34 16,11 26,24 32,38 5,15 6,28 3,42 l -932,3793 c -4,15 -11,28 -20,37 -9,10 -23,16 -41,19 -18,3 -40,3 -68,0 -27,-3 -60,-9 -98,-18 -40,-10 -73,-20 -98,-30 -26,-11 -47,-21 -62,-32 -16,-11 -26,-23 -30,-36 -5,-13 -6,-28 -2,-43 l 83,-339 c -171,113 -339,193 -504,239 -165,46 -334,47 -507,5 -188,-46 -339,-122 -454,-228 -115,-106 -199,-231 -251,-376 -52,-144 -76,-305 -73,-483 4,-177 28,-359 74,-545 54,-220 127,-413 218,-579 91,-166 198,-300 322,-402 124,-103 263,-171 417,-204 154,-34 322,-29 502,16 150,37 279,103 387,199 109,96 208,223 298,380 l 366,-1490 c 4,-13 10,-25 20,-35 9,-11 24,-18 45,-20 21,-1 46,-1 77,1 30,3 69,10 114,21 z"
   id="path401"
   inkscape:connector-curvature="0"
   style="fill:#7030a0" />
  <path
   class="fil2"
   d="m 26027,12476 c 64,29 126,63 186,102 59,40 111,79 156,118 44,39 81,76 109,111 28,36 48,64 61,87 12,23 19,41 20,54 2,14 1,28 -2,42 -4,15 -8,33 -14,54 -6,20 -16,45 -29,74 -13,30 -26,56 -39,77 -13,21 -25,37 -38,49 -13,11 -25,18 -36,20 -12,3 -23,1 -34,-3 -16,-8 -35,-28 -57,-61 -21,-33 -51,-72 -89,-116 -38,-43 -86,-90 -142,-138 -56,-49 -127,-92 -210,-130 -76,-33 -145,-54 -210,-63 -65,-9 -122,-5 -173,9 -50,15 -95,40 -133,75 -37,34 -68,76 -90,126 -31,70 -39,136 -25,199 15,64 43,126 84,187 41,61 92,123 152,184 61,61 122,124 184,188 63,64 122,132 180,202 57,71 102,146 136,225 33,79 50,164 51,254 2,91 -21,188 -67,291 -55,124 -127,223 -216,299 -88,76 -189,129 -303,157 -113,29 -235,34 -367,16 -131,-18 -266,-58 -405,-120 -86,-38 -164,-82 -236,-130 -72,-48 -134,-96 -186,-144 -53,-48 -95,-93 -128,-134 -33,-42 -55,-76 -67,-102 -12,-27 -15,-58 -9,-94 5,-37 20,-82 45,-138 15,-34 30,-61 43,-83 15,-22 27,-38 39,-50 12,-12 24,-19 37,-21 12,-2 25,0 37,6 20,9 44,34 71,75 28,41 63,89 107,142 43,54 98,110 164,168 66,59 149,110 249,155 75,33 146,56 214,67 68,11 131,11 190,-1 58,-11 110,-35 156,-73 46,-37 83,-89 113,-155 30,-68 38,-133 24,-194 -14,-62 -42,-124 -83,-185 -41,-61 -91,-122 -150,-181 -59,-60 -119,-122 -182,-186 -62,-64 -121,-132 -176,-203 -55,-70 -99,-146 -131,-227 -33,-81 -49,-167 -50,-260 0,-92 23,-192 71,-299 43,-94 101,-177 177,-247 75,-70 164,-122 266,-154 102,-32 217,-44 344,-34 128,10 265,47 411,113 z"
   id="path403"
   inkscape:connector-curvature="0"
   style="fill:#ff0000" />
 </g>
</svg>